<?xml version="1.0" encoding="utf-8"?>
<!-- Generator: Adobe Illustrator 16.0.0, SVG Export Plug-In . SVG Version: 6.00 Build 0)  -->
<!DOCTYPE svg PUBLIC "-//W3C//DTD SVG 1.1//EN" "http://www.w3.org/Graphics/SVG/1.1/DTD/svg11.dtd">
<svg version="1.1" id="Layer_1" xmlns="http://www.w3.org/2000/svg" xmlns:xlink="http://www.w3.org/1999/xlink" x="0px" y="0px"
	 width="140px" height="140px" viewBox="0 0 140 140" enable-background="new 0 0 140 140" xml:space="preserve">
<g id="Bird">
	<path fill="#FCA426" d="M70.266,132.444c-0.396,0.435-3.407,0.373-6.852,3.419c-3.444,3.041-1.842,4.646-3.975,3.987
		c-2.151-0.663-2.373-2.897-1.542-4.796l-0.083,0.072c-3.448,3.044-1.843,4.65-3.979,3.99c-1.796-0.554-2.247-2.206-1.862-3.847
		c-2.201,2.436-1.127,3.659-3.03,3.062c-2.961-0.913-2.269-4.8-0.202-6.688c1.998-1.772,5.569-2.759,8.215-2.874l0,0l0,0L57,128.768
		c2.95,1.475,7.792,2.44,13.269,2.44c5.473,0,10.319-0.96,13.268-2.44c0.865,0.041,1.832,0.167,2.814,0.387l3.865,1.403
		c0.588,0.32,1.123,0.683,1.58,1.086c2.066,1.889,2.758,5.775-0.201,6.688c-1.906,0.588-0.832-0.63-3.035-3.062
		c0.385,1.641-0.066,3.287-1.865,3.847c-2.131,0.652-0.525-0.952-3.975-3.99l-0.086-0.072c0.834,1.898,0.611,4.133-1.541,4.796
		c-2.133,0.651-0.529-0.954-3.975-3.987C73.672,132.817,70.664,132.875,70.266,132.444z"/>
	<path fill="#E6951F" d="M91.793,131.647c-0.455-0.401-0.988-0.764-1.576-1.084l-3.869-1.403c-0.979-0.22-1.947-0.352-2.813-0.387
		c-2.951,1.473-7.793,2.435-13.269,2.435l0,0v1.244l0,0c0.397,0.433,3.406,0.369,6.851,3.419c3.447,3.039,1.844,4.646,3.973,3.979
		c2.152-0.655,2.373-2.892,1.543-4.79l0.086,0.066c3.445,3.052,1.842,4.656,3.973,3.994c1.803-0.551,2.252-2.21,1.865-3.843
		c2.205,2.438,1.129,3.651,3.033,3.063C94.553,137.429,93.859,133.54,91.793,131.647z"/>
	<path fill="#3594E8" d="M128.814,88.655c0.691-2.864,1.076-5.813,1.076-8.827c0-10.449-4.35-20.095-11.684-27.891
		c-2.705-10.01-7.473-18.885-13.689-25.878c-0.449-0.503-1.367-2.496-1.34-4.999c0.041-4.71,0.49-10.099,0.49-10.099
		s-4.729,8.952-10.682,6.692c-4.021-1.527-0.338-7.74-0.338-7.74s-2.488,1.386-5.424,2.864c-3.088,1.556-6.682,3.195-9.049,2.443
		c-4.621-1.462,2.498-14.76,2.498-14.76S65.306,13.904,62.251,14.072c-4.117,0.227-3.6-6.02-3.6-6.02s-4.464,4.813-6.931,6.001
		C37.884,20.722,27.055,34.626,22.377,51.93c-7.341,7.798-11.691,17.443-11.691,27.898c0,2.951,0.361,5.837,1.023,8.639
		c-2.405-3.199-4.435-6.696-6.018-10.429c2.062,15.451,11.231,28.646,24.104,36.213c0.082,0.055,0.169,0.118,0.25,0.175l1.466-4.09
		c9.25,13.515,23.187,22.128,38.772,22.128c15.598,0,29.543-8.619,38.793-22.151l1.471,4.113c0.012-0.01,0.025-0.018,0.035-0.025
		c13.039-7.536,22.336-20.819,24.416-36.397C133.377,81.823,131.291,85.394,128.814,88.655z"/>
	<path fill="#1E88E6" d="M128.814,88.655c0.691-2.864,1.076-5.813,1.076-8.827c0-10.449-4.35-20.095-11.684-27.891
		c-2.705-10.01-7.473-18.885-13.689-25.878c-0.449-0.503-1.367-2.496-1.34-4.999c0.041-4.71,0.49-10.099,0.49-10.099
		s-4.729,8.952-10.682,6.692c-4.021-1.527-0.338-7.74-0.338-7.74s-2.488,1.386-5.424,2.864c-3.088,1.556-6.682,3.195-9.049,2.443
		c-4.621-1.462,2.498-14.76,2.498-14.76s-5.33,4.664-10.338,8.533v123.47c15.577-0.02,29.502-8.631,38.743-22.151l1.471,4.113
		c0.012-0.01,0.025-0.018,0.035-0.025c13.039-7.536,22.336-20.819,24.416-36.397C133.377,81.823,131.291,85.394,128.814,88.655z"/>
	<path fill="#FFFFFF" d="M59.273,71.249c-0.094-3.493-0.328-7.664-0.687-12.651c-0.665-9.185-2.306-19.516-10.852-19.516
		c-9.588,0-18.969,11.288-18.969,25.09c0,7.722,2.655,14.625,6.823,19.207C42.851,77.371,50.83,73.193,59.273,71.249z"/>
	<path fill="#FFFFFF" d="M81.203,71.249c0.096-3.493,0.326-7.664,0.689-12.651c0.664-9.185,2.305-19.516,10.852-19.516
		c9.588,0,18.971,11.288,18.971,25.09c0,7.722-2.654,14.625-6.824,19.207C97.627,77.371,89.646,73.193,81.203,71.249z"/>
	<path fill="#2B2A29" d="M105.225,66.177c0-10.058-6.092-18.211-13.607-18.211c-3.5,0-6.693,1.772-9.104,4.682
		c-0.293,1.96-0.48,3.982-0.621,5.953c-0.363,4.987-0.594,9.157-0.689,12.65c6.762,1.559,13.225,4.549,19.26,8.765
		C103.379,76.671,105.225,71.714,105.225,66.177z"/>
	<path fill="#2B2A29" d="M35.303,66.177c0,5.525,1.841,10.472,4.744,13.809c6.027-4.196,12.478-7.183,19.226-8.737
		c-0.094-3.493-0.328-7.664-0.687-12.651c-0.146-1.995-0.335-4.04-0.632-6.025c-2.405-2.864-5.573-4.608-9.043-4.608
		C41.396,47.966,35.303,56.12,35.303,66.177z"/>
	<ellipse fill="#FFFFFF" cx="94.018" cy="56.986" rx="4.156" ry="4.425"/>
	<ellipse fill="#FFFFFF" cx="51.485" cy="56.986" rx="4.157" ry="4.425"/>
	<path fill="#FFFFFF" d="M91.461,107.848c0.012-0.095,0.074-4.786-3.025-7.218c-5.475-4.3-15.57-2.55-18.266,1.908
		c-9.751-5.475-17.258-0.889-19.734,2.988c-1.694,2.649-1.763,6.869-1.726,6.968c0,0-6.024-0.904-7.67,4.179
		c-1.563,4.833,5.062,8.504,8.261,10.328c4.346,2.484,11.843,5.52,20.969,5.52c10.014,0,17.981-3.619,21.68-5.795
		c5.84-3.441,8.994-7.305,8.279-12.238C99.199,107.44,92.848,107.908,91.461,107.848z M70.505,127.99l-0.021,0.035v-0.035
		l0.021-0.031V127.99z"/>
	<path fill="#E1E4E5" d="M100.223,114.487c-1.023-7.047-7.375-6.579-8.762-6.64c0.012-0.095,0.074-4.786-3.025-7.218
		c-5.377-4.222-15.182-2.606-18.091,1.67v30.221c9.976-0.018,17.912-3.623,21.601-5.795
		C97.783,123.284,100.939,119.419,100.223,114.487z M70.505,127.99l-0.021,0.035v-0.035l0.021-0.031V127.99z"/>
	<path fill="#FCA426" d="M75.51,71.399c-2.096-2.385-5.218-2.354-5.244-2.354l0,0c-0.012,0-3.14-0.037-5.243,2.354
		c-2.963,1.821-5.458,4.595-2.069,7.916c0.135,0.138,0.26,0.271,0.381,0.427c0.843,6.07,4.461,11.815,6.931,15.142l0,0
		c2.47-3.326,6.087-9.077,6.933-15.142c0.119-0.153,0.246-0.289,0.381-0.427C80.967,75.994,78.473,73.221,75.51,71.399z"/>
	<path fill="#E6951F" d="M75.51,71.399c-2.096-2.385-5.218-2.354-5.244-2.354l0,0V94.88l0,0c2.47-3.327,6.087-9.077,6.933-15.14
		c0.119-0.153,0.246-0.289,0.381-0.425C80.967,75.994,78.473,73.221,75.51,71.399z"/>
	<ellipse fill="#2B2A29" cx="66.619" cy="76.387" rx="0.965" ry="2.163"/>
	<ellipse fill="#2B2A29" cx="73.912" cy="76.387" rx="0.967" ry="2.163"/>
	<path fill="#2B2A29" d="M70.31,124.903l7.389-18.425c0.27-0.649,0.674-0.976,1.209-0.976c0.533,0,0.926,0.144,1.178,0.409
		c0.248,0.271,0.375,0.566,0.375,0.881c0,0.315-0.031,0.551-0.094,0.692L72.6,126.316c-0.439,0.962-1.092,1.445-1.948,1.445h-0.687
		c-0.86,0-1.508-0.478-1.95-1.445l-2.995-7.266h1.86h1.084L70.31,124.903z"/>
	<path fill="#1E88E5" d="M62.959,106.571L62.959,106.571c-0.253-0.628-0.862-1.068-1.578-1.068c-0.007,0-0.014,0-0.024,0h-0.002
		h-3.88l0,0h-0.002c-0.769,0-1.391,0.617-1.391,1.385s0.622,1.393,1.391,1.393c0,0,0.002,0,0.004,0l3.108,0.002l1.588,3.851
		l1.706,4.217h3.008L62.959,106.571z"/>
	<path fill="#1972BF" d="M120.84,73.048c-0.066-1.012-0.264-3.336-0.268-3.496c0.012,0.542,0.035,1.078,0.035,1.623
		c0,14.943-4.23,28.495-11.529,39.138l1.471,4.113C117.93,103.238,121.82,88.694,120.84,73.048z"/>
	<path fill="#0277BD" d="M19.555,73.048c0.066-1.012,0.262-3.336,0.266-3.496c-0.009,0.542-0.034,1.078-0.034,1.623
		c0,14.943,4.428,28.522,11.726,39.161l-1.466,4.09C22.667,103.244,18.573,88.694,19.555,73.048z"/>
	<path fill="#1972BF" d="M92.945,29.991c-0.35-0.099-0.693-0.173-1.041-0.24l0.016-0.052c-1.416-0.4-2.24-1.872-1.84-3.288
		s1.875-2.238,3.289-1.839c4.617,1.309,7.367,5.975,6.375,10.605C98.268,32.739,95.904,30.829,92.945,29.991z"/>
	<path fill="#0277BD" d="M40.964,35.18c-0.992-4.627,1.756-9.295,6.377-10.605c1.414-0.4,2.889,0.422,3.289,1.839
		c0.4,1.416-0.422,2.888-1.838,3.288l0.014,0.052c-0.347,0.064-0.694,0.141-1.04,0.24C44.808,30.829,42.449,32.739,40.964,35.18z"/>
</g>
</svg>
