<?xml version="1.0" encoding="utf-8"?>
<!-- Generator: Adobe Illustrator 19.0.0, SVG Export Plug-In . SVG Version: 6.00 Build 0)  -->
<svg version="1.1" id="图层_1" xmlns="http://www.w3.org/2000/svg" xmlns:xlink="http://www.w3.org/1999/xlink" x="0px" y="0px"
	 viewBox="0 0 120 35" style="enable-background:new 0 0 120 35;" xml:space="preserve">
<style type="text/css">
	.st0{fill:#FFFFFF;}
</style>
<g id="XMLID_2_">
</g>
<g id="XMLID_22_">
</g>
<g id="XMLID_23_">
</g>
<g id="XMLID_24_">
</g>
<g id="XMLID_25_">
</g>
<g id="XMLID_26_">
</g>
<g id="XMLID_27_">
</g>
<g id="XMLID_28_">
</g>
<g id="XMLID_29_">
</g>
<g id="XMLID_30_">
</g>
<g id="XMLID_31_">
</g>
<g id="XMLID_32_">
</g>
<g id="XMLID_33_">
</g>
<g id="XMLID_34_">
</g>
<g>
	<path class="st0" d="M18.4,14.7c0-0.9,0.6-1.4,1.4-1.4s1.4,0.5,1.4,1.4v1.2l0,0c0.4-1.3,1-2.6,2.5-2.6c1,0,1.7,0.6,1.7,1.5
		c0,1.1-0.8,1.5-1.5,1.5h-0.5c-1.2,0-1.9,0.9-1.9,3.4v3.6c0,0.8-0.3,1.5-1.5,1.5s-1.5-0.7-1.5-1.5L18.4,14.7L18.4,14.7z"/>
	<path class="st0" d="M28.5,9.1c0.9,0,1.6,0.7,1.6,1.6c0,0.9-0.7,1.6-1.6,1.6s-1.6-0.7-1.6-1.6C26.9,9.8,27.6,9.1,28.5,9.1z
		 M27,14.8c0-0.8,0.3-1.5,1.5-1.5S30,14,30,14.8v8.5c0,0.8-0.3,1.5-1.5,1.5S27,24.1,27,23.3V14.8z"/>
	<path class="st0" d="M34.5,24.2c-0.2,0.3-0.6,0.6-1.2,0.6c-0.7,0-1.5-0.6-1.5-1.4c0-0.3,0.1-0.6,0.4-1l2.4-3.5l-2.2-3.3
		c-0.2-0.2-0.3-0.5-0.3-0.8c0-0.7,0.5-1.5,1.6-1.5c0.5,0,0.9,0.2,1.2,0.8l1.7,2.8l1.7-2.7c0.5-0.8,0.9-0.9,1.4-0.9
		c0.7,0,1.4,0.6,1.4,1.3c0,0.4-0.1,0.8-0.3,1l-2.2,3.3l2.4,3.5c0.2,0.2,0.3,0.5,0.3,0.9c0,0.7-0.6,1.4-1.6,1.4c-0.6,0-1-0.4-1.4-1
		l-1.8-2.8L34.5,24.2z"/>
	<path class="st0" d="M50,9.1c3.9,0,6.1,2.5,6.1,3.9c0,1-0.5,1.6-1.6,1.6c-2,0-1.4-2.7-4.6-2.7c-2.2,0-3.9,1.9-3.9,5.1
		c0,2.8,1.1,5.1,4.1,5.1c2.7,0,2.6-2.9,4.3-2.9c0.8,0,1.7,0.5,1.7,1.3c0,2.2-2.6,4.3-6,4.3c-4.7,0-7.5-2.7-7.5-7.9
		C42.6,12.7,45.2,9.1,50,9.1z"/>
	<path class="st0" d="M58.1,10.7c0-1,0.6-1.5,1.5-1.5s1.5,0.5,1.5,1.5v12.6c0,1-0.6,1.5-1.5,1.5s-1.5-0.5-1.5-1.5V10.7z"/>
	<path class="st0" d="M69,13.3c3.7,0,5.7,2.5,5.7,5.8c0,3.1-1.5,5.8-5.7,5.8s-5.7-2.7-5.7-5.8C63.3,15.8,65.3,13.3,69,13.3z
		 M69,22.5c1.8,0,2.6-1.6,2.6-3.5c0-2-0.8-3.5-2.6-3.5S66.4,17,66.4,19C66.4,20.9,67.1,22.5,69,22.5z"/>
	<path class="st0" d="M87,23.3c0,0.9-0.4,1.5-1.4,1.5s-1.4-0.6-1.4-1.5v-0.4l0,0c-0.9,1.1-2,1.9-3.7,1.9c-1.8,0-3.9-0.9-3.9-4v-6
		c0-0.8,0.3-1.5,1.5-1.5s1.5,0.7,1.5,1.5v5.4c0,1.2,0.6,2.1,1.9,2.1c1.1,0,2.3-0.9,2.3-2.4v-5.1c0-0.8,0.3-1.5,1.5-1.5
		s1.5,0.7,1.5,1.5v8.5H87z"/>
	<path class="st0" d="M99.8,23.3c0,0.9-0.4,1.4-1.4,1.4c-0.9,0-1.4-0.5-1.4-1.4v-0.5l0,0c-0.5,1.3-1.7,1.9-3.2,1.9
		c-2.6,0-4.8-1.9-4.8-5.8c0-2.9,1.5-5.7,4.7-5.7c1.4,0,2.4,0.6,3,1.6l0,0v-4.2c0-1,0.6-1.5,1.5-1.5s1.5,0.5,1.5,1.5v12.7H99.8z
		 M94.5,22.4c1.8,0,2.5-1.6,2.5-3.3c0-1.6-0.6-3.4-2.5-3.4c-2,0-2.4,2-2.4,3.4C92,20.9,92.8,22.4,94.5,22.4z"/>
</g>
</svg>
