<?xml version="1.0" encoding="UTF-8" standalone="no"?>
<!-- Generator: Adobe Illustrator 19.0.0, SVG Export Plug-In . SVG Version: 6.00 Build 0)  -->

<svg
   xmlns:dc="http://purl.org/dc/elements/1.1/"
   xmlns:cc="http://creativecommons.org/ns#"
   xmlns:rdf="http://www.w3.org/1999/02/22-rdf-syntax-ns#"
   xmlns:svg="http://www.w3.org/2000/svg"
   xmlns="http://www.w3.org/2000/svg"
   xmlns:sodipodi="http://sodipodi.sourceforge.net/DTD/sodipodi-0.dtd"
   xmlns:inkscape="http://www.inkscape.org/namespaces/inkscape"
   version="1.1"
   id="Layer_1"
   x="0px"
   y="0px"
   viewBox="-214 391.9 166.4 58"
   xml:space="preserve"
   inkscape:version="0.48.4 r9939"
   width="100%"
   height="100%"
   sodipodi:docname="logo.svg"
   style="enable-background:new -214 391.9 166.4 58;"><metadata
   id="metadata69"><rdf:RDF><cc:Work
       rdf:about=""><dc:format>image/svg+xml</dc:format><dc:type
         rdf:resource="http://purl.org/dc/dcmitype/StillImage" /><dc:title></dc:title></cc:Work></rdf:RDF></metadata><defs
   id="defs67" /><sodipodi:namedview
   pagecolor="#ffffff"
   bordercolor="#666666"
   borderopacity="1"
   objecttolerance="10"
   gridtolerance="10"
   guidetolerance="10"
   inkscape:pageopacity="0"
   inkscape:pageshadow="2"
   inkscape:window-width="1601"
   inkscape:window-height="939"
   id="namedview65"
   showgrid="false"
   inkscape:zoom="3.4375"
   inkscape:cx="13.503205"
   inkscape:cy="23.379026"
   inkscape:window-x="0"
   inkscape:window-y="0"
   inkscape:window-maximized="0"
   inkscape:current-layer="Layer_1"
   inkscape:snap-global="false" />
<style
   type="text/css"
   id="style3">
	.st0{fill:#FFFFFF;}
	.st1{fill:#104666;}
	.st2{fill:#FCA426;}
	.st3{fill:#E6951F;}
	.st4{fill:#3594E8;}
	.st5{fill:#1E88E6;}
	.st6{fill:#2B2A29;}
	.st7{fill:#E1E4E5;}
	.st8{fill:#1E88E5;}
	.st9{fill:#1972BF;}
	.st10{fill:#0277BD;}
</style>
<g
   id="Logo"
   transform="translate(-29.672729,0)">
	<g
   id="g6">
		<path
   class="st0"
   d="m -51.6,421.9 c 1.3,-0.5 2.3,-1.2 2.9,-2.2 0.6,-1 1,-2 1,-3.2 0,-1.8 -0.6,-3.2 -1.9,-4.3 -1.4,-1.1 -3.4,-1.7 -6.1,-1.7 h -6.9 c -0.4,0 -0.7,0.1 -0.9,0.4 -0.3,0.3 -0.4,0.6 -0.4,1 v 18 c 0,0.4 0.1,0.7 0.4,0.9 0.3,0.3 0.6,0.4 0.9,0.4 0.4,0 0.7,-0.1 1,-0.4 0.3,-0.3 0.4,-0.6 0.4,-0.9 v -6.8 h 6.1 c 1.1,0 2,0.2 2.6,0.7 0.6,0.4 1.1,1 1.4,1.8 0.3,0.8 0.5,1.9 0.5,3.5 v 0.9 c 0,0.4 0.1,0.7 0.4,1 0.2,0.2 0.6,0.4 1,0.4 0.4,0 0.7,-0.1 1,-0.4 0.3,-0.3 0.4,-0.6 0.4,-0.9 v -1.4 c 0,-1.3 -0.2,-2.5 -0.6,-3.7 -0.8,-1.8 -1.8,-2.8 -3.2,-3.1 z m -4.3,-1.3 h -5.3 v -7.5 h 5.2 c 2,0 3.5,0.3 4.5,1 0.8,0.6 1.2,1.5 1.2,2.7 0,1.3 -0.5,2.2 -1.5,2.9 -1.1,0.5 -2.5,0.9 -4.1,0.9 z"
   id="path8"
   inkscape:connector-curvature="0"
   style="fill:#ffffff" />
		<path
   class="st0"
   d="m -69.8,410.5 h -14.7 c -0.4,0 -0.6,0.1 -0.9,0.4 -0.2,0.2 -0.4,0.5 -0.4,0.9 0,0.4 0.1,0.6 0.4,0.9 0.2,0.2 0.5,0.4 0.9,0.4 h 6 V 430 c 0,0.4 0.1,0.7 0.4,0.9 0.3,0.3 0.6,0.4 0.9,0.4 0.3,0 0.7,-0.1 1,-0.4 0.3,-0.3 0.4,-0.6 0.4,-0.9 v -17 h 6 c 0.4,0 0.7,-0.1 0.9,-0.4 0.2,-0.2 0.4,-0.5 0.4,-0.9 0,-0.4 -0.1,-0.7 -0.4,-0.9 -0.3,-0.2 -0.6,-0.3 -0.9,-0.3 z"
   id="path10"
   inkscape:connector-curvature="0"
   style="fill:#ffffff" />
		<path
   class="st0"
   d="m -89.3,428.4 h -9.6 v -16.7 c 0,-0.4 -0.1,-0.7 -0.4,-1 -0.3,-0.3 -0.6,-0.4 -1,-0.4 -0.4,0 -0.7,0.1 -0.9,0.4 -0.3,0.3 -0.4,0.6 -0.4,1 v 17.5 c 0,0.5 0.2,0.9 0.5,1.3 0.4,0.4 0.8,0.5 1.3,0.5 h 10.5 c 0.4,0 0.7,-0.1 1,-0.4 0.3,-0.3 0.4,-0.6 0.4,-0.9 0,-0.4 -0.1,-0.7 -0.4,-1 -0.3,-0.3 -0.6,-0.3 -1,-0.3 z"
   id="path12"
   inkscape:connector-curvature="0"
   style="fill:#ffffff" />
		<path
   class="st0"
   d="m -109.8,410.4 c -0.4,0 -0.7,0.1 -0.9,0.4 -0.3,0.3 -0.4,0.6 -0.4,1 v 11.7 c 0,1.7 -0.6,3.1 -1.8,4.1 -1.1,0.9 -2.4,1.4 -4,1.4 -1.6,0 -2.9,-0.5 -4,-1.4 -1.2,-1 -1.8,-2.4 -1.8,-4.1 v -11.7 c 0,-0.4 -0.1,-0.7 -0.4,-1 -0.3,-0.3 -0.6,-0.4 -1,-0.4 -0.4,0 -0.7,0.1 -0.9,0.4 -0.3,0.3 -0.4,0.6 -0.4,1 v 11.6 c 0,2.6 0.9,4.6 2.7,6.1 1.6,1.3 3.5,1.9 5.7,1.9 2.2,0 4.1,-0.6 5.7,-1.9 1.8,-1.5 2.8,-3.5 2.8,-6.1 v -11.6 c 0,-0.4 -0.1,-0.7 -0.4,-1 -0.2,-0.3 -0.6,-0.4 -0.9,-0.4 z"
   id="path14"
   inkscape:connector-curvature="0"
   style="fill:#ffffff" />
		<path
   class="st0"
   d="m -131.6,410.4 c -0.5,0 -0.9,0.3 -1.1,0.9 l -6.9,17.3 -2.2,-5.5 h -1 -1.7 l 2.8,6.8 c 0.4,0.9 1,1.4 1.8,1.4 h 0.6 c 0.8,0 1.4,-0.5 1.8,-1.4 l 7.3,-17.6 c 0.1,-0.1 0.1,-0.4 0.1,-0.6 0,-0.3 -0.1,-0.6 -0.4,-0.8 -0.2,-0.4 -0.6,-0.5 -1.1,-0.5 z"
   id="path16"
   inkscape:connector-curvature="0"
   style="fill:#ffffff" />
	</g>
	<path
   class="st1"
   d="m -146.5,411.4 0,0 c -0.2,-0.6 -0.8,-1 -1.5,-1 0,0 0,0 0,0 l 0,0 h -3.6 l 0,0 c 0,0 0,0 0,0 -0.7,0 -1.3,0.6 -1.3,1.3 0,0.7 0.6,1.3 1.3,1.3 0,0 0,0 0,0 l 2.9,0 1.5,3.6 1.6,4 h 2.8 l -3.7,-9.2 z"
   id="path18"
   inkscape:connector-curvature="0"
   style="fill:#104666" />
</g>

</svg>